# xmcd
#
# Track frame offsets:
#	150
#	15635
#	29575
#	38350
#	56965
#	68347
#	81065
#	89662
#	100095
#	109897
#	122012
#	134942
#	151407
#	161415
#	172057
#	185790
#	195940
#	203695
#	212952
#	228477
#
# Disc length: 3190 seconds
#
# Revision: 1
# Processed by: cddbd v1.5.1PL0 Copyright (c) Steve Scherf et al.
# Submitted via: EasyCDDAExtractor 6.5.7.1
#
DISCID=180c7414
DTITLE=Various Artist - The Heart of Country cd2
DYEAR=1994
DGENRE=Country
TTITLE0=Ray Pillow - If Drinkin' don't kill me her memory will
TTITLE1=Ronnie Milsap - Kentucky Woman
TTITLE2=Billie Jo Spears - You're my Man
TTITLE3=Jack Green - Amazing Grace
TTITLE4=Waylon Jennings - Sally was a good old girl
TTITLE5=Kenny Rogers - Reuben james
TTITLE6=The Cowboy Copas - Ball and Chain
TTITLE7=Connie Smith - Once a Day
TTITLE8=Wille Nelson - Let's Pretend
TTITLE9=Roy Acuff - Take my Hand
TTITLE10=Ace Cannon - Move it on over
TTITLE11=Freddie Hart - Hank Williams Guitar
TTITLE12=Don Gibson - Sweet dreams
TTITLE13=Johnny Paycheck - Juke box Charlie
TTITLE14=Donna Fargo - You can't be a beacon (if your light don't shine)
TTITLE15=Jack Green - I'll flay away
TTITLE16=Merle Travis - Guitar rag
TTITLE17=Faron Young - A heartache for a keepsake
TTITLE18=Tex Ritter - Hill-Billy heaven
TTITLE19=Carls Perkins - Dixie Fried
EXTD=
EXTT0=
EXTT1=
EXTT2=
EXTT3=
EXTT4=
EXTT5=
EXTT6=
EXTT7=
EXTT8=
EXTT9=
EXTT10=
EXTT11=
EXTT12=
EXTT13=
EXTT14=
EXTT15=
EXTT16=
EXTT17=
EXTT18=
EXTT19=
PLAYORDER=
